grf
version=1
nRows=28
nColumns=46
inDegrees=yes
endheader
time	ground_force_1_vx	ground_force_1_vy	ground_force_1_vz	ground_force_1_px	ground_force_1_py	ground_force_1_pz	ground_moment_1_mx	ground_moment_1_my	ground_moment_1_mz	ground_force_2_vx	ground_force_2_vy	ground_force_2_vz	ground_force_2_px	ground_force_2_py	ground_force_2_pz	ground_moment_2_mx	ground_moment_2_my	ground_moment_2_mz	ground_force_3_vx	ground_force_3_vy	ground_force_3_vz	ground_force_3_px	ground_force_3_py	ground_force_3_pz	ground_moment_3_mx	ground_moment_3_my	ground_moment_3_mz	ground_force_4_vx	ground_force_4_vy	ground_force_4_vz	ground_force_4_px	ground_force_4_py	ground_force_4_pz	ground_moment_4_mx	ground_moment_4_my	ground_moment_4_mz	ground_force_5_vx	ground_force_5_vy	ground_force_5_vz	ground_force_5_px	ground_force_5_py	ground_force_5_pz	ground_moment_5_mx	ground_moment_5_my	ground_moment_5_mz
0.000000	0.000000	0.000000	0.000000	0.000000	0.000000	0.000000	0.000000	0.000000	0.000000	0.000000	0.000000	0.000000	0.000000	0.000000	0.000000	0.000000	0.000000	0.000000	0.000000	0.000000	0.000000	0.000000	0.000000	0.000000	0.000000	0.000000	0.000000	47.500878	414.908306	8.509780	1.076584	0.000000	0.226857	-0.000000	4.176941	0.000000	-45.486586	454.395133	-5.024012	1.380820	0.000000	0.250832	0.000000	-3.685179	0.000000
0.000500	0.000000	0.000000	0.000000	0.000000	0.000000	0.000000	0.000000	0.000000	0.000000	0.000000	0.000000	0.000000	0.000000	0.000000	0.000000	0.000000	0.000000	0.000000	0.000000	0.000000	0.000000	0.000000	0.000000	0.000000	0.000000	0.000000	0.000000	47.496354	414.903564	8.513652	1.076576	0.000000	0.226857	-0.000000	4.176320	0.000000	-45.460743	454.395467	-5.029404	1.380858	0.000000	0.250838	0.000000	-3.686466	0.000000
0.001000	0.000000	0.000000	0.000000	0.000000	0.000000	0.000000	0.000000	0.000000	0.000000	0.000000	0.000000	0.000000	0.000000	0.000000	0.000000	0.000000	0.000000	0.000000	0.000000	0.000000	0.000000	0.000000	0.000000	0.000000	0.000000	0.000000	0.000000	47.492101	414.899152	8.517279	1.076568	0.000000	0.226856	-0.000000	4.175663	0.000000	-45.435112	454.395055	-5.034794	1.380895	0.000000	0.250843	0.000000	-3.687677	0.000000
0.001500	0.000000	0.000000	0.000000	0.000000	0.000000	0.000000	0.000000	0.000000	0.000000	0.000000	0.000000	0.000000	0.000000	0.000000	0.000000	0.000000	0.000000	0.000000	0.000000	0.000000	0.000000	0.000000	0.000000	0.000000	0.000000	0.000000	0.000000	47.488124	414.895139	8.520658	1.076560	0.000000	0.226855	-0.000000	4.174970	0.000000	-45.409787	454.393944	-5.040175	1.380933	0.000000	0.250848	0.000000	-3.688810	0.000000
0.002000	0.000000	0.000000	0.000000	0.000000	0.000000	0.000000	0.000000	0.000000	0.000000	0.000000	0.000000	0.000000	0.000000	0.000000	0.000000	0.000000	0.000000	0.000000	0.000000	0.000000	0.000000	0.000000	0.000000	0.000000	0.000000	0.000000	0.000000	47.484434	414.891589	8.523781	1.076553	0.000000	0.226854	-0.000000	4.174241	0.000000	-45.384860	454.392155	-5.045542	1.380969	0.000000	0.250854	0.000000	-3.689865	0.000000
0.002500	0.000000	0.000000	0.000000	0.000000	0.000000	0.000000	0.000000	0.000000	0.000000	0.000000	0.000000	0.000000	0.000000	0.000000	0.000000	0.000000	0.000000	0.000000	0.000000	0.000000	0.000000	0.000000	0.000000	0.000000	0.000000	0.000000	0.000000	47.481043	414.888557	8.526641	1.076547	0.000000	0.226852	-0.000000	4.173474	0.000000	-45.360410	454.389680	-5.050885	1.381005	0.000000	0.250858	0.000000	-3.690842	0.000000
0.003000	0.000000	0.000000	0.000000	0.000000	0.000000	0.000000	0.000000	0.000000	0.000000	0.000000	0.000000	0.000000	0.000000	0.000000	0.000000	0.000000	0.000000	0.000000	0.000000	0.000000	0.000000	0.000000	0.000000	0.000000	0.000000	0.000000	0.000000	47.477968	414.886094	8.529230	1.076541	0.000000	0.226851	-0.000000	4.172670	0.000000	-45.336509	454.386496	-5.056194	1.381040	0.000000	0.250863	0.000000	-3.691741	0.000000
0.003500	0.000000	0.000000	0.000000	0.000000	0.000000	0.000000	0.000000	0.000000	0.000000	0.000000	0.000000	0.000000	0.000000	0.000000	0.000000	0.000000	0.000000	0.000000	0.000000	0.000000	0.000000	0.000000	0.000000	0.000000	0.000000	0.000000	0.000000	47.475222	414.884248	8.531540	1.076535	0.000000	0.226848	-0.000000	4.171829	0.000000	-45.313218	454.382573	-5.061458	1.381073	0.000000	0.250867	0.000000	-3.692559	0.000000
0.004000	0.000000	0.000000	0.000000	0.000000	0.000000	0.000000	0.000000	0.000000	0.000000	0.000000	0.000000	0.000000	0.000000	0.000000	0.000000	0.000000	0.000000	0.000000	0.000000	0.000000	0.000000	0.000000	0.000000	0.000000	0.000000	0.000000	0.000000	47.472815	414.883061	8.533572	1.076530	0.000000	0.226846	-0.000000	4.170954	0.000000	-45.290589	454.377889	-5.066667	1.381106	0.000000	0.250872	0.000000	-3.693300	0.000000
0.004500	0.000000	0.000000	0.000000	0.000000	0.000000	0.000000	0.000000	0.000000	0.000000	0.000000	0.000000	0.000000	0.000000	0.000000	0.000000	0.000000	0.000000	0.000000	0.000000	0.000000	0.000000	0.000000	0.000000	0.000000	0.000000	0.000000	0.000000	47.470751	414.882567	8.535326	1.076524	0.000000	0.226843	-0.000000	4.170047	0.000000	-45.268669	454.372427	-5.071805	1.381138	0.000000	0.250876	0.000000	-3.693965	0.000000
0.005000	0.000000	0.000000	0.000000	0.000000	0.000000	0.000000	0.000000	0.000000	0.000000	0.000000	0.000000	0.000000	0.000000	0.000000	0.000000	0.000000	0.000000	0.000000	0.000000	0.000000	0.000000	0.000000	0.000000	0.000000	0.000000	0.000000	0.000000	47.469027	414.882787	8.536804	1.076520	0.000000	0.226839	-0.000000	4.169113	0.000000	-45.247494	454.366175	-5.076856	1.381169	0.000000	0.250879	0.000000	-3.694558	0.000000
0.005500	0.000000	0.000000	0.000000	0.000000	0.000000	0.000000	0.000000	0.000000	0.000000	0.000000	0.000000	0.000000	0.000000	0.000000	0.000000	0.000000	0.000000	0.000000	0.000000	0.000000	0.000000	0.000000	0.000000	0.000000	0.000000	0.000000	0.000000	47.467642	414.883728	8.538010	1.076515	0.000000	0.226836	-0.000000	4.168155	0.000000	-45.227092	454.359123	-5.081798	1.381199	0.000000	0.250883	0.000000	-3.695084	0.000000
0.006000	0.000000	0.000000	0.000000	0.000000	0.000000	0.000000	0.000000	0.000000	0.000000	0.000000	0.000000	0.000000	0.000000	0.000000	0.000000	0.000000	0.000000	0.000000	0.000000	0.000000	0.000000	0.000000	0.000000	0.000000	0.000000	0.000000	0.000000	47.466589	414.885398	8.538944	1.076511	0.000000	0.226832	-0.000000	4.167177	0.000000	-45.207474	454.351265	-5.086604	1.381228	0.000000	0.250886	0.000000	-3.695548	0.000000
0.006500	0.000000	0.000000	0.000000	0.000000	0.000000	0.000000	0.000000	0.000000	0.000000	0.000000	0.000000	0.000000	0.000000	0.000000	0.000000	0.000000	0.000000	0.000000	0.000000	0.000000	0.000000	0.000000	0.000000	0.000000	0.000000	0.000000	0.000000	47.465868	414.887805	8.539607	1.076506	0.000000	0.226828	-0.000000	4.166181	0.000000	-45.188644	454.342602	-5.091247	1.381255	0.000000	0.250889	0.000000	-3.695955	0.000000
0.007000	0.000000	0.000000	0.000000	0.000000	0.000000	0.000000	0.000000	0.000000	0.000000	0.000000	0.000000	0.000000	0.000000	0.000000	0.000000	0.000000	0.000000	0.000000	0.000000	0.000000	0.000000	0.000000	0.000000	0.000000	0.000000	0.000000	0.000000	47.465478	414.890969	8.539999	1.076502	0.000000	0.226823	-0.000000	4.165168	0.000000	-45.170600	454.333145	-5.095699	1.381282	0.000000	0.250892	0.000000	-3.696312	0.000000
0.007500	0.000000	0.000000	0.000000	0.000000	0.000000	0.000000	0.000000	0.000000	0.000000	0.000000	0.000000	0.000000	0.000000	0.000000	0.000000	0.000000	0.000000	0.000000	0.000000	0.000000	0.000000	0.000000	0.000000	0.000000	0.000000	0.000000	0.000000	47.465416	414.894917	8.540123	1.076498	0.000000	0.226818	-0.000000	4.164140	0.000000	-45.153339	454.322920	-5.099931	1.381308	0.000000	0.250894	0.000000	-3.696623	0.000000
0.008000	0.000000	0.000000	0.000000	0.000000	0.000000	0.000000	0.000000	0.000000	0.000000	0.000000	0.000000	0.000000	0.000000	0.000000	0.000000	0.000000	0.000000	0.000000	0.000000	0.000000	0.000000	0.000000	0.000000	0.000000	0.000000	0.000000	0.000000	47.465678	414.899685	8.539979	1.076494	0.000000	0.226813	-0.000000	4.163097	0.000000	-45.136858	454.311970	-5.103920	1.381332	0.000000	0.250897	0.000000	-3.696894	0.000000
0.008500	0.000000	0.000000	0.000000	0.000000	0.000000	0.000000	0.000000	0.000000	0.000000	0.000000	0.000000	0.000000	0.000000	0.000000	0.000000	0.000000	0.000000	0.000000	0.000000	0.000000	0.000000	0.000000	0.000000	0.000000	0.000000	0.000000	0.000000	47.466254	414.905304	8.539572	1.076490	0.000000	0.226808	-0.000000	4.162042	0.000000	-45.121153	454.300340	-5.107648	1.381356	0.000000	0.250899	0.000000	-3.697129	0.000000
0.009000	0.000000	0.000000	0.000000	0.000000	0.000000	0.000000	0.000000	0.000000	0.000000	0.000000	0.000000	0.000000	0.000000	0.000000	0.000000	0.000000	0.000000	0.000000	0.000000	0.000000	0.000000	0.000000	0.000000	0.000000	0.000000	0.000000	0.000000	47.467135	414.911802	8.538903	1.076487	0.000000	0.226803	-0.000000	4.160975	0.000000	-45.106218	454.288066	-5.111101	1.381378	0.000000	0.250901	0.000000	-3.697336	0.000000
0.009500	0.000000	0.000000	0.000000	0.000000	0.000000	0.000000	0.000000	0.000000	0.000000	0.000000	0.000000	0.000000	0.000000	0.000000	0.000000	0.000000	0.000000	0.000000	0.000000	0.000000	0.000000	0.000000	0.000000	0.000000	0.000000	0.000000	0.000000	47.468310	414.919194	8.537976	1.076483	0.000000	0.226797	-0.000000	4.159898	0.000000	-45.092045	454.275166	-5.114262	1.381400	0.000000	0.250903	0.000000	-3.697521	0.000000
0.010000	0.000000	0.000000	0.000000	0.000000	0.000000	0.000000	0.000000	0.000000	0.000000	0.000000	0.000000	0.000000	0.000000	0.000000	0.000000	0.000000	0.000000	0.000000	0.000000	0.000000	0.000000	0.000000	0.000000	0.000000	0.000000	0.000000	0.000000	47.469771	414.927481	8.536797	1.076479	0.000000	0.226791	-0.000000	4.158816	0.000000	-45.078619	454.261650	-5.117115	1.381420	0.000000	0.250905	0.000000	-3.697692	0.000000
0.010500	0.000000	0.000000	0.000000	0.000000	0.000000	0.000000	0.000000	0.000000	0.000000	0.000000	0.000000	0.000000	0.000000	0.000000	0.000000	0.000000	0.000000	0.000000	0.000000	0.000000	0.000000	0.000000	0.000000	0.000000	0.000000	0.000000	0.000000	47.471500	414.936648	8.535372	1.076475	0.000000	0.226785	-0.000000	4.157731	0.000000	-45.065922	454.247514	-5.119647	1.381440	0.000000	0.250906	0.000000	-3.697858	0.000000
0.011000	0.000000	0.000000	0.000000	0.000000	0.000000	0.000000	0.000000	0.000000	0.000000	0.000000	0.000000	0.000000	0.000000	0.000000	0.000000	0.000000	0.000000	0.000000	0.000000	0.000000	0.000000	0.000000	0.000000	0.000000	0.000000	0.000000	0.000000	47.473477	414.946670	8.533708	1.076471	0.000000	0.226779	-0.000000	4.156648	0.000000	-45.053929	454.232752	-5.121852	1.381458	0.000000	0.250907	0.000000	-3.698025	0.000000
0.011500	0.000000	0.000000	0.000000	0.000000	0.000000	0.000000	0.000000	0.000000	0.000000	0.000000	0.000000	0.000000	0.000000	0.000000	0.000000	0.000000	0.000000	0.000000	0.000000	0.000000	0.000000	0.000000	0.000000	0.000000	0.000000	0.000000	0.000000	47.475672	414.957525	8.531813	1.076467	0.000000	0.226773	-0.000000	4.155567	0.000000	-45.042613	454.217363	-5.123731	1.381476	0.000000	0.250909	0.000000	-3.698198	0.000000
0.012000	0.000000	0.000000	0.000000	0.000000	0.000000	0.000000	0.000000	0.000000	0.000000	0.000000	0.000000	0.000000	0.000000	0.000000	0.000000	0.000000	0.000000	0.000000	0.000000	0.000000	0.000000	0.000000	0.000000	0.000000	0.000000	0.000000	0.000000	47.478055	414.969189	8.529692	1.076463	0.000000	0.226766	-0.000000	4.154490	0.000000	-45.031948	454.201358	-5.125296	1.381492	0.000000	0.250910	0.000000	-3.698383	0.000000
0.012500	0.000000	0.000000	0.000000	0.000000	0.000000	0.000000	0.000000	0.000000	0.000000	0.000000	0.000000	0.000000	0.000000	0.000000	0.000000	0.000000	0.000000	0.000000	0.000000	0.000000	0.000000	0.000000	0.000000	0.000000	0.000000	0.000000	0.000000	47.480600	414.981643	8.527345	1.076459	0.000000	0.226760	-0.000000	4.153416	0.000000	-45.021900	454.184754	-5.126563	1.381508	0.000000	0.250911	0.000000	-3.698582	0.000000
0.013000	0.000000	0.000000	0.000000	0.000000	0.000000	0.000000	0.000000	0.000000	0.000000	0.000000	0.000000	0.000000	0.000000	0.000000	0.000000	0.000000	0.000000	0.000000	0.000000	0.000000	0.000000	0.000000	0.000000	0.000000	0.000000	0.000000	0.000000	47.483285	414.994862	8.524774	1.076454	0.000000	0.226753	-0.000000	4.152348	0.000000	-45.012437	454.167570	-5.127558	1.381522	0.000000	0.250912	0.000000	-3.698798	0.000000
0.013500	0.000000	0.000000	0.000000	0.000000	0.000000	0.000000	0.000000	0.000000	0.000000	0.000000	0.000000	0.000000	0.000000	0.000000	0.000000	0.000000	0.000000	0.000000	0.000000	0.000000	0.000000	0.000000	0.000000	0.000000	0.000000	0.000000	0.000000	47.486091	415.008820	8.521972	1.076450	0.000000	0.226746	-0.000000	4.151284	0.000000	-45.003522	454.149826	-5.128310	1.381535	0.000000	0.250912	0.000000	-3.699031	0.000000
